<?xml version="1.0" encoding="UTF-8"?>
<svg xmlns="http://www.w3.org/2000/svg" xmlns:xlink="http://www.w3.org/1999/xlink" width="1000" zoomAndPan="magnify" viewBox="0 0 750 749.999995" height="1000" preserveAspectRatio="xMidYMid meet" version="1.0">
  <rect x="-75" width="900" fill="#ffffff" y="-74.999999" height="899.999994" fill-opacity="1"></rect>
  <rect x="-75" width="900" fill="#ffffff" y="-74.999999" height="899.999994" fill-opacity="1"></rect>
  <path fill="#e0558d" d="M 504.128906 227.75 C 428.265625 153.078125 305.695312 153.078125 229.832031 227.75 C 153.96875 302.421875 153.96875 423.503906 229.832031 498.175781 C 305.695312 572.851562 428.265625 572.851562 504.128906 498.175781 C 579.988281 423.503906 579.988281 302.421875 504.128906 227.75 Z M 504.128906 227.75 " fill-opacity="1" fill-rule="nonzero"></path>
  <path fill="#010101" d="M 719.816406 205.734375 C 704.046875 194.429688 695.417969 195.023438 676.972656 176.28125 C 652.878906 152.183594 660.015625 143.558594 633.242188 116.484375 C 606.46875 89.710938 597.542969 96.851562 573.445312 72.753906 C 554.703125 54.007812 555.59375 45.976562 543.992188 29.914062 C 535.363281 17.714844 517.8125 16.820312 508.886719 28.128906 C 470.507812 77.808594 470.808594 149.804688 473.78125 185.207031 C 394.945312 144.152344 293.496094 155.160156 224.773438 223.585938 C 156.050781 292.308594 145.34375 394.050781 186.398438 472.59375 C 175.390625 471.699219 160.515625 471.105469 144.152344 471.699219 C 96.253906 473.78125 57.578125 485.683594 29.316406 507.695312 C 18.011719 516.621094 18.90625 534.175781 31.101562 542.800781 C 47.167969 554.40625 73.644531 561.246094 94.171875 599.625 C 107.261719 624.316406 125.410156 642.464844 150.101562 655.554688 C 188.480469 675.785156 195.320312 702.558594 206.925781 718.625 C 215.550781 730.523438 233.105469 731.714844 242.03125 720.410156 C 280.40625 670.726562 280.109375 598.730469 277.132812 563.328125 C 355.972656 604.382812 457.417969 593.378906 526.140625 524.953125 C 594.863281 456.230469 605.574219 354.484375 564.519531 275.945312 C 617.773438 280.40625 679.355469 273.566406 721.597656 240.839844 C 732.90625 231.914062 732.011719 214.066406 719.816406 205.734375 Z M 239.648438 238.164062 L 240.246094 237.566406 L 240.246094 435.40625 C 240.246094 446.710938 261.070312 447.007812 261.070312 435.40625 L 261.070312 219.71875 C 280.109375 205.734375 301.230469 195.320312 323.542969 189.074219 L 323.542969 559.164062 C 300.933594 552.917969 279.8125 542.503906 261.070312 528.523438 L 261.070312 477.351562 C 261.070312 463.667969 240.246094 463.667969 240.246094 477.351562 L 240.246094 510.671875 C 164.382812 435.40625 164.382812 313.429688 239.648438 238.164062 Z M 225.667969 707.320312 C 219.121094 709.699219 213.765625 665.667969 159.917969 637.109375 C 138.796875 625.804688 123.625 610.929688 112.617188 589.808594 C 84.652344 537.148438 42.40625 531.199219 42.40625 524.058594 C 73.050781 500.257812 115.292969 493.714844 145.042969 492.523438 C 170.628906 491.335938 192.050781 493.714844 200.378906 494.90625 C 202.460938 497.878906 204.542969 500.855469 206.628906 503.53125 C 189.96875 508.589844 167.953125 516.917969 148.316406 530.605469 C 137.011719 538.636719 149.210938 555.296875 160.21875 547.5625 C 181.042969 532.984375 204.84375 525.25 221.203125 520.785156 C 225.070312 524.953125 229.238281 529.117188 233.699219 532.984375 C 229.535156 548.753906 221.800781 573.148438 206.628906 594.269531 C 198.59375 605.574219 215.550781 617.476562 223.585938 606.46875 C 238.160156 586.238281 246.195312 563.925781 251.253906 547.265625 C 252.441406 548.15625 253.335938 548.753906 254.523438 549.644531 C 257.5 568.683594 266.425781 654.664062 225.667969 707.320312 Z M 344.371094 563.925781 L 344.371094 184.613281 C 364.898438 181.339844 386.316406 181.339844 406.84375 184.613281 L 406.84375 563.925781 C 386.316406 567.195312 364.898438 567.195312 344.371094 563.925781 Z M 511.566406 510.078125 C 511.265625 510.375 511.265625 510.375 510.96875 510.671875 L 510.96875 325.925781 C 510.96875 312.238281 490.144531 312.238281 490.144531 325.925781 L 490.144531 528.523438 C 471.105469 542.503906 449.980469 552.917969 427.667969 559.460938 L 427.667969 189.074219 C 450.28125 195.320312 471.402344 205.734375 490.144531 220.015625 L 490.144531 284.273438 C 490.144531 297.960938 510.96875 297.960938 510.96875 284.273438 L 510.96875 237.863281 C 511.265625 237.863281 511.265625 238.164062 511.566406 238.460938 C 586.535156 313.429688 586.535156 434.808594 511.566406 510.078125 Z M 550.835938 253.335938 C 549.941406 252.144531 549.347656 251.253906 548.453125 250.0625 C 566.007812 244.707031 589.507812 236.078125 610.632812 220.3125 C 621.640625 211.980469 609.144531 195.621094 598.136719 203.652344 C 576.417969 220.015625 550.835938 228.046875 534.472656 232.507812 C 530.605469 228.046875 526.738281 224.179688 522.273438 220.015625 C 527.035156 202.757812 534.769531 178.066406 550.535156 156.648438 C 558.570312 145.640625 541.910156 133.144531 533.878906 144.449219 C 519.003906 164.679688 510.375 187.585938 505.019531 205.140625 C 502.042969 203.058594 499.367188 200.675781 496.390625 198.890625 C 489.253906 148.316406 494.011719 81.675781 525.25 40.917969 C 529.414062 39.433594 535.066406 63.828125 558.867188 87.328125 C 585.640625 114.105469 594.566406 106.964844 618.664062 131.0625 C 642.761719 155.160156 635.621094 163.789062 662.398438 190.859375 C 676.378906 204.84375 686.195312 209.898438 694.824219 214.660156 C 698.394531 216.445312 709.105469 222.097656 709.105469 224.179688 C 668.050781 255.714844 601.410156 260.476562 550.835938 253.335938 Z M 550.835938 253.335938 " fill-opacity="1" fill-rule="nonzero"></path>
</svg>
